<?xml version="1.0" encoding="UTF-8"?>
<svg width="32px" height="32px" viewBox="0 0 32 32" version="1.1" xmlns="http://www.w3.org/2000/svg" xmlns:xlink="http://www.w3.org/1999/xlink">
    <title>Group 37</title>
    <defs>
        <filter id="filter-1">
            <feColorMatrix in="SourceGraphic" type="matrix" values="0 0 0 0 0.494118 0 0 0 0 0.494118 0 0 0 0 0.494118 0 0 0 1.000000 0"></feColorMatrix>
        </filter>
    </defs>
    <g id="CreatorStudio" stroke="none" stroke-width="1" fill="none" fill-rule="evenodd">
        <g id="13-CreatorStudio-/-01-Home-/-01_07_NewProject-Step1-AddNewWokspace" transform="translate(-544.000000, -442.000000)">
            <g id="Group-37" transform="translate(544.000000, 442.000000)">
                <rect id="Rectangle" fill="#7e7e7e" opacity="0" x="0" y="0" width="32" height="32"></rect>
                <g id="Group-36">
                    <g transform="translate(2.700000, 3.000000)">
                        <path d="M5.74941494,24.0689127 C5.74945383,24.5783914 5.3884709,24.9932963 4.93933393,25 L1.13735374,25 C0.688216764,24.9932963 0.327272727,24.5783914 0.327272727,24.0689127 L0.327272727,1.91883614 C0.327272727,1.41137695 0.689958348,1 1.13735374,1 L4.97173717,1 C5.41913256,1 5.78181818,1.41137695 5.78181818,1.91883614 L5.74941494,24.0689127 Z" id="Path" fill="#7e7e7e"></path>
                        <path d="M25.4181818,24.0689127 C25.4181818,24.5783914 25.1377561,24.9932963 24.7888112,25 L20.5930072,25 C20.2440623,24.9932963 19.9636364,24.5783914 19.9636364,24.0689127 L19.9636364,1.91883614 C19.9633661,1.42539032 20.2301096,1.01973768 20.5678324,1 L24.7636364,1 C25.1112282,1 25.393007,1.41137695 25.393007,1.91883614 L25.4181818,24.0689127 Z" id="Path" fill="#7e7e7e"></path>
                        <path d="M15.4181818,24.0689127 C15.4181818,24.5783914 15.1377561,24.9932963 14.7888112,25 L10.5930072,25 C10.2440623,24.9932963 9.96363636,24.5783914 9.96363636,24.0689127 L9.96363636,1.91883614 C9.96336607,1.42539032 10.2301096,1.01973768 10.5678324,1 L14.7636364,1 C15.1112282,1 15.393007,1.41137695 15.393007,1.91883614 L15.4181818,24.0689127 Z" id="Path" fill="#7e7e7e" transform="translate(12.690909, 13.000000) rotate(17.000000) translate(-12.690909, -13.000000) "></path>
                    </g>
                </g>
            </g>
        </g>
    </g>
</svg>